<?xml version="1.0" encoding="UTF-8"?>
<svg width="512" height="512" viewBox="0 0 512 512" version="1.1" xmlns="http://www.w3.org/2000/svg">
    <g transform="translate(56, 96)">
        <path d="M200,0 C310.457,0 400,89.543 400,200 C400,310.457 310.457,400 200,400 C89.543,400 0,310.457 0,200 C0,89.543 89.543,0 200,0 Z M200,40 C111.634,40 40,111.634 40,200 C40,288.366 111.634,360 200,360 C288.366,360 360,288.366 360,200 C360,111.634 288.366,40 200,40 Z" fill="#000000"/>
        <path d="M0,200 C0,89.543 89.543,0 200,0 C200,110.457 110.457,200 0,200 Z" fill="#000000"/>
    </g>
</svg>
